<?xml version="1.0" encoding="utf-8"?>
<!-- Generator: Adobe Illustrator 23.0.3, SVG Export Plug-In . SVG Version: 6.00 Build 0)  -->
<svg version="1.1" id="Layer_1" xmlns="http://www.w3.org/2000/svg" xmlns:xlink="http://www.w3.org/1999/xlink" x="0px" y="0px"
	 viewBox="0 0 134.4 150" style="enable-background:new 0 0 134.4 150;" xml:space="preserve">
<style type="text/css">
	.st0{display:none;}
	.st1{display:inline;}
	.st2{fill:#FFFFFF;}
</style>
<g class="st0">
	<rect x="-1.7" y="12" class="st1" width="150" height="126"/>
</g>
<g>
	<g>
		<path class="st2" d="M80.6,114.2c8.3,0,14.8-2.2,19.5-6.6c4.7-4.4,7.1-10.7,7.1-18.6V71.2c0-7.9-2.4-14.1-7.1-18.6
			c-4.7-4.4-11.2-6.6-19.5-6.6H60.7c-1.4,0-2.6,1.2-2.6,2.6v62.9c0,1.4,1.2,2.6,2.6,2.6H80.6z M72.1,59.7h8.8c3.9,0,7,1,9,2.9
			c2,1.9,3,4.6,3,8.3v18.5c0,3.7-1,6.4-3,8.3c-2.1,2-5.1,2.9-9,2.9h-8.8V59.7z M125.5,33.6L73.9,3.8c-2-1.1-4.3-1.7-6.7-1.7
			c-2.4,0-4.7,0.6-6.7,1.7L8.9,33.6C4.8,36,2.2,40.4,2.2,45.2v59.5c0,4.8,2.6,9.2,6.7,11.6l13.6,7.8c0.1,0,0.1,0.1,0.2,0.1
			c7.1,3.5,9.9,3.5,13.1,3.5c11.2,0,17.9-7,17.9-18.7V50.3c0-2.3-1.8-4.1-4.1-4.1h-6.5c-2.3,0-4.1,1.8-4.1,4.1V109c0,2-1.5,4-4.3,4
			c-1.3,0-2.7-0.4-4.2-1.1l-13.5-7.8V45.8l50.5-29.1l50.5,29.1v58.3l-50.5,29.2l-12.6-7.5c-0.7-0.4-1.4-0.7-2.2-0.7
			c-0.7,0-1.3,0.2-1.8,0.5c-3.4,1.9-4,2.1-7.3,3.3l0,0c-0.6,0.2-2.6,0.9-2.8,3c-0.2,2.3,2,3.5,2.8,4l17.2,10.2
			c2,1.2,4.3,1.9,6.8,1.9c2.4,0,4.7-0.6,6.7-1.8l51.6-29.8c4.1-2.4,6.7-6.9,6.7-11.6V45.2C132.2,40.5,129.6,36,125.5,33.6z"/>
	</g>
</g>
</svg>
