<?xml version="1.0" encoding="utf-8"?>
<!-- Generator: Adobe Illustrator 23.0.3, SVG Export Plug-In . SVG Version: 6.00 Build 0)  -->
<svg version="1.1"
	 id="svg4136" inkscape:version="0.91 r13725" sodipodi:docname="kirki-logo.svg" xmlns:cc="http://creativecommons.org/ns#" xmlns:dc="http://purl.org/dc/elements/1.1/" xmlns:inkscape="http://www.inkscape.org/namespaces/inkscape" xmlns:rdf="http://www.w3.org/1999/02/22-rdf-syntax-ns#" xmlns:sodipodi="http://sodipodi.sourceforge.net/DTD/sodipodi-0.dtd" xmlns:svg="http://www.w3.org/2000/svg"
	 xmlns="http://www.w3.org/2000/svg" xmlns:xlink="http://www.w3.org/1999/xlink" x="0px" y="0px" viewBox="0 0 50 50"
	 style="enable-background:new 0 0 50 50;" xml:space="preserve">
<style type="text/css">
	.st0{opacity:0.58;fill:none;stroke:#000000;stroke-miterlimit:10;}
</style>
<path class="st0" d="M0.5,24.2v25.3h48.8V24.2L37.9,36.6c-0.1,0.2-0.4,0.2-0.5,0.1c-0.2-0.1-0.3-0.3-0.3-0.5V24.2L31.6,30
	c-0.2,0.2-0.5,0.2-0.7,0L25,23.6L19.1,30c-0.2,0.2-0.5,0.2-0.7,0L13,24.2v12.2c0,0.1,0,0.2-0.1,0.3c-0.1,0.1-0.2,0.2-0.4,0.2
	c0,0,0,0,0,0c-0.1,0-0.3,0-0.4-0.1L0.5,24.2z"/>
</svg>
